<?xml version="1.0" encoding="UTF-8" standalone="no"?>
<!-- Generator: Adobe Illustrator 19.0.0, SVG Export Plug-In . SVG Version: 6.00 Build 0)  -->

<svg
   version="1.1"
   id="Layer_1"
   x="0px"
   y="0px"
   viewBox="0 0 473.954 473.954"
   style="enable-background:new 0 0 473.954 473.954;"
   xml:space="preserve"
   sodipodi:docname="bookmark.svg"
   inkscape:version="1.1.1 (3bf5ae0d25, 2021-09-20, custom)"
   xmlns:inkscape="http://www.inkscape.org/namespaces/inkscape"
   xmlns:sodipodi="http://sodipodi.sourceforge.net/DTD/sodipodi-0.dtd"
   xmlns="http://www.w3.org/2000/svg"
   xmlns:svg="http://www.w3.org/2000/svg"><defs
   id="defs175" /><sodipodi:namedview
   id="namedview173"
   pagecolor="#ffffff"
   bordercolor="#666666"
   borderopacity="1.0"
   inkscape:pageshadow="2"
   inkscape:pageopacity="0.0"
   inkscape:pagecheckerboard="0"
   showgrid="false"
   inkscape:zoom="1.1469937"
   inkscape:cx="303.83776"
   inkscape:cy="204.01158"
   inkscape:window-width="1920"
   inkscape:window-height="1014"
   inkscape:window-x="0"
   inkscape:window-y="32"
   inkscape:window-maximized="1"
   inkscape:current-layer="Layer_1" />
<circle
   style="fill:#4ABC96;"
   cx="236.988"
   cy="236.975"
   id="circle2"
   r="236.966" />
<g
   id="g10">
	<path
   style="fill:#357180"
   d="M 49.081,126.095 V 107.334 H 38.63 c -3.772,5.759 -7.323,11.671 -10.589,17.766 z"
   id="path4" />
	<polygon
   style="fill:#357180"
   points="79.756,126.066 167.657,121.893 167.657,107.334 79.756,107.334 "
   id="polygon6" />
	<path
   style="fill:#357180"
   d="M 335.221,107.334 H 232.404 v 11.487 l 79.666,-3.779 v 11.768 h 10.237 v 331.228 c 7.001,-2.705 13.833,-5.721 20.497,-9.048 V 114.915 c 0.001,-4.172 -3.393,-7.581 -7.583,-7.581 z"
   id="path8" />
</g>
<polygon
   style="fill:#27636D;"
   points="64.074,126.814 79.756,126.066 79.756,107.334 49.081,107.334 49.081,126.095 "
   id="polygon12" />
<path
   style="fill:#D7D7BF;"
   d="M322.311,458.038V126.814h-10.237v334.91C315.52,460.568,318.933,459.348,322.311,458.038z"
   id="path14" />
<g
   id="g42">
	<path
   style="fill:#e7e7d6"
   d="m 49.081,126.814 v -0.715 l -21.04,-0.995 c -0.307,0.561 -0.58,1.141 -0.876,1.71 z"
   id="path16" />
	<polygon
   style="fill:#e7e7d6"
   points="49.081,126.095 49.081,126.814 49.634,126.814 64.074,126.814 "
   id="polygon18" />
	<path
   style="fill:#e7e7d6"
   d="M 27.165,126.814 C 20.19,140.071 14.432,154.05 10.043,168.647 l 26.428,0.842 c 4.46,0.146 8.086,4.026 8.086,8.673 0,4.647 -3.626,8.295 -8.086,8.15 l -30.765,-0.98 c -1.283,5.766 -2.376,11.607 -3.229,17.526 l 33.994,1.089 c 4.46,0.146 8.086,4.019 8.086,8.666 0,4.647 -3.626,8.303 -8.086,8.157 L 0.7,219.628 c -0.4,5.497 -0.666,11.034 -0.685,16.632 l 36.452,1.171 c 4.46,0.138 8.086,4.019 8.086,8.666 0,4.647 -3.626,8.303 -8.086,8.157 L 0.606,253.102 c 0.4,5.957 1.003,11.861 1.833,17.687 l 34.031,1.089 c 4.46,0.146 8.086,4.019 8.086,8.658 0,4.655 -3.626,8.31 -8.086,8.165 L 5.503,287.713 c 1.351,6.174 2.915,12.277 4.741,18.264 l 26.23,0.842 c 4.46,0.146 8.086,4.019 8.086,8.666 0,4.64 -3.626,8.296 -8.086,8.15 l -20.299,-0.651 c 2.369,6.08 4.943,12.06 7.79,17.874 l 12.509,0.4 c 4.46,0.146 8.086,4.034 8.086,8.666 0,4.647 -3.626,8.295 -8.086,8.15 l -3.233,-0.101 c 4.823,8.105 10.121,15.88 15.843,23.319 V 126.814 Z"
   id="path20" />
	<path
   style="fill:#e7e7d6"
   d="m 49.634,126.814 h -0.55 v 254.485 c 0.183,0.236 0.37,0.468 0.55,0.703 z"
   id="path22" />
	<path
   style="fill:#e7e7d6"
   d="m 49.634,381.998 c 4.157,5.366 8.516,10.559 13.115,15.543 V 135.267 h 1.325 v -8.456 h -14.44 z"
   id="path24" />
	<polygon
   style="fill:#e7e7d6"
   points="79.756,126.066 79.756,126.814 167.657,126.814 167.657,121.893 "
   id="polygon26" />
	<polygon
   style="fill:#e7e7d6"
   points="232.404,118.825 232.404,126.814 312.07,126.814 312.07,115.046 "
   id="polygon28" />
	<polygon
   style="fill:#e7e7d6"
   points="64.074,126.814 79.191,126.814 79.756,126.814 79.756,126.066 "
   id="polygon30" />
	<polygon
   style="fill:#e7e7d6"
   points="197.73,320.289 187.451,338.242 214.93,337.366 206.373,320.008 "
   id="polygon32" />
	<polygon
   style="fill:#e7e7d6"
   points="223.091,353.927 177.648,355.376 167.919,372.359 231.181,370.343 "
   id="polygon34" />
	<path
   style="fill:#e7e7d6"
   d="m 232.404,165.032 52.1,-1.665 c 4.464,-0.146 8.082,3.502 8.082,8.157 0,4.647 -3.618,8.52 -8.082,8.673 l -52.1,1.658 v 17.635 l 52.1,-1.665 c 4.464,-0.146 8.082,3.502 8.082,8.15 0,4.648 -3.618,8.527 -8.082,8.673 l -52.1,1.665 v 16.655 l 52.1,-1.658 c 4.464,-0.153 8.082,3.502 8.082,8.15 0,4.648 -3.618,8.52 -8.082,8.666 l -52.1,1.665 v 17.635 l 52.1,-1.665 c 4.464,-0.146 8.082,3.495 8.082,8.142 0,4.647 -3.618,8.535 -8.082,8.681 l -52.1,1.665 v 18.118 l 52.1,-1.665 c 4.464,-0.146 8.082,3.502 8.082,8.15 0,4.632 -3.618,8.52 -8.082,8.666 l -52.1,1.658 v 17.635 l 52.1,-1.665 c 4.464,-0.146 8.082,3.51 8.082,8.15 0,4.647 -3.618,8.52 -8.082,8.666 l -52.1,1.665 v 16.67 l 52.1,-1.658 c 4.464,-0.153 8.082,3.502 8.082,8.142 0,4.64 -3.618,8.527 -8.082,8.673 L 93.039,391.57 c -4.46,0.146 -8.075,-3.51 -8.075,-8.157 0,-4.64 3.615,-8.52 8.075,-8.658 l 74.614,-2.391 v -16.67 l -74.614,2.384 c -4.46,0.146 -8.075,-3.502 -8.075,-8.15 0,-4.632 3.615,-8.52 8.075,-8.666 l 74.614,-2.384 v -17.635 l -74.614,2.391 c -4.46,0.146 -8.075,-3.51 -8.075,-8.15 0,-4.647 3.615,-8.52 8.075,-8.666 l 74.614,-2.384 V 286.316 L 93.039,288.7 c -4.46,0.146 -8.075,-3.51 -8.075,-8.165 0,-4.64 3.615,-8.513 8.075,-8.658 l 74.614,-2.383 V 251.86 l -74.614,2.391 c -4.46,0.146 -8.075,-3.51 -8.075,-8.157 0,-4.647 3.615,-8.527 8.075,-8.666 l 74.614,-2.391 v -16.655 l -74.614,2.383 c -4.46,0.146 -8.075,-3.51 -8.075,-8.157 0,-4.647 3.615,-8.52 8.075,-8.666 l 74.614,-2.383 v -17.635 l -74.614,2.383 c -4.46,0.146 -8.075,-3.502 -8.075,-8.15 0,-4.647 3.615,-8.527 8.075,-8.673 l 74.614,-2.383 V 126.814 H 79.756 v 287.401 c 1.747,1.549 3.506,3.091 5.298,4.591 -0.034,-0.314 -0.09,-0.614 -0.09,-0.935 0,-4.632 3.615,-8.52 8.075,-8.666 l 191.466,-6.118 c 4.464,-0.146 8.082,3.51 8.082,8.142 0,4.655 -3.618,8.527 -8.082,8.673 L 94.072,425.99 c 39.73,30.08 89.222,47.954 142.898,47.954 26.26,0 51.494,-4.333 75.097,-12.221 v -334.91 h -79.662 v 38.219 z"
   id="path36" />
	<path
   style="fill:#e7e7d6"
   d="m 79.191,413.721 c 0.187,0.168 0.382,0.322 0.565,0.49 V 126.814 h -0.565 z"
   id="path38" />
	<path
   style="fill:#e7e7d6"
   d="m 66.072,135.267 v 265.759 c 4.217,4.393 8.58,8.64 13.119,12.696 V 126.814 H 64.074 v 8.456 h 1.998 z"
   id="path40" />
</g>
<g
   id="g48">
	<path
   style="fill:#DCDDD8;"
   d="M64.074,135.267h-1.325v262.275c0.434,0.475,0.887,0.92,1.325,1.388V135.267z"
   id="path44" />
	<path
   style="fill:#DCDDD8;"
   d="M66.072,401.029V135.267h-1.998V398.93C64.736,399.641,65.402,400.333,66.072,401.029z"
   id="path46" />
</g>
<g
   id="g96">
	<path
   style="fill:#B9B9BA;"
   d="M44.557,178.158c0-4.647-3.626-8.527-8.086-8.673l-26.428-0.842   c-1.643,5.474-3.079,11.042-4.333,16.685l30.765,0.98C40.931,186.454,44.557,182.806,44.557,178.158z"
   id="path50" />
	<path
   style="fill:#B9B9BA;"
   d="M44.557,212.609c0-4.647-3.626-8.52-8.086-8.666l-33.994-1.089   c-0.797,5.534-1.369,11.132-1.777,16.771l35.771,1.141C40.931,220.912,44.557,217.256,44.557,212.609z"
   id="path52" />
	<path
   style="fill:#B9B9BA;"
   d="M44.557,246.094c0-4.647-3.626-8.527-8.086-8.666l-36.452-1.171C0.015,236.496,0,236.724,0,236.96   c0,5.437,0.247,10.802,0.606,16.142l35.865,1.149C40.931,254.397,44.557,250.745,44.557,246.094z"
   id="path54" />
	<path
   style="fill:#B9B9BA;"
   d="M44.557,280.54c0-4.64-3.626-8.513-8.086-8.658L2.44,270.793c0.819,5.714,1.848,11.349,3.061,16.924   l30.967,0.988C40.931,288.847,44.557,285.195,44.557,280.54z"
   id="path56" />
	<path
   style="fill:#B9B9BA;"
   d="M44.557,315.485c0-4.647-3.626-8.52-8.086-8.666l-26.23-0.842   c1.755,5.774,3.753,11.431,5.931,17.006l20.299,0.651C40.931,323.78,44.557,320.128,44.557,315.485z"
   id="path58" />
	<path
   style="fill:#B9B9BA;"
   d="M44.557,349.928c0-4.632-3.626-8.52-8.086-8.666l-12.509-0.4c2.859,5.852,5.961,11.555,9.276,17.115   l3.233,0.101C40.931,358.223,44.557,354.579,44.557,349.928z"
   id="path60" />
	<path
   style="fill:#B9B9BA;"
   d="M93.039,169.485c-4.46,0.146-8.075,4.026-8.075,8.673c0,4.647,3.615,8.295,8.075,8.15l74.614-2.384   v-16.823L93.039,169.485z"
   id="path62" />
	<path
   style="fill:#B9B9BA;"
   d="M284.505,180.198c4.464-0.153,8.082-4.026,8.082-8.673c0-4.655-3.618-8.303-8.082-8.157l-52.1,1.665   v16.823L284.505,180.198z"
   id="path64" />
	<path
   style="fill:#B9B9BA;"
   d="M284.505,214.648c4.464-0.146,8.082-4.026,8.082-8.673s-3.618-8.295-8.082-8.15l-52.1,1.665v16.823   L284.505,214.648z"
   id="path66" />
	<path
   style="fill:#B9B9BA;"
   d="M93.039,203.943c-4.46,0.146-8.075,4.019-8.075,8.666c0,4.647,3.615,8.303,8.075,8.157l74.614-2.383   v-16.823L93.039,203.943z"
   id="path68" />
	<path
   style="fill:#B9B9BA;"
   d="M93.039,237.428c-4.46,0.138-8.075,4.019-8.075,8.666c0,4.647,3.615,8.303,8.075,8.157l74.614-2.391   v-16.823L93.039,237.428z"
   id="path70" />
	<path
   style="fill:#B9B9BA;"
   d="M284.505,248.125c4.464-0.146,8.082-4.019,8.082-8.666s-3.618-8.303-8.082-8.15l-52.1,1.661v16.823   L284.505,248.125z"
   id="path72" />
	<path
   style="fill:#B9B9BA;"
   d="M284.505,282.583c4.464-0.146,8.082-4.034,8.082-8.681s-3.618-8.288-8.082-8.142l-52.1,1.665v16.823   L284.505,282.583z"
   id="path74" />
	<path
   style="fill:#B9B9BA;"
   d="M93.039,271.878c-4.46,0.146-8.075,4.019-8.075,8.658c0,4.655,3.615,8.31,8.075,8.165l74.614-2.384   v-16.823L93.039,271.878z"
   id="path76" />
	<path
   style="fill:#B9B9BA;"
   d="M284.505,317.516c4.464-0.146,8.082-4.034,8.082-8.666c0-4.647-3.618-8.296-8.082-8.15l-52.1,1.665   v16.808L284.505,317.516z"
   id="path78" />
	<path
   style="fill:#B9B9BA;"
   d="M93.039,306.819c-4.46,0.146-8.075,4.019-8.075,8.666c0,4.64,3.615,8.296,8.075,8.15l74.614-2.391   v-16.808L93.039,306.819z"
   id="path80" />
	<polygon
   style="fill:#B9B9BA;"
   points="202.448,312.042 197.73,320.289 206.373,320.008  "
   id="polygon82" />
	<path
   style="fill:#B9B9BA;"
   d="M284.505,351.959c4.464-0.146,8.082-4.019,8.082-8.666c0-4.64-3.618-8.295-8.082-8.15l-52.1,1.665   v16.815L284.505,351.959z"
   id="path84" />
	<path
   style="fill:#B9B9BA;"
   d="M93.039,341.262c-4.46,0.146-8.075,4.034-8.075,8.666c0,4.647,3.615,8.296,8.075,8.15l74.614-2.384   v-16.815L93.039,341.262z"
   id="path86" />
	<polygon
   style="fill:#B9B9BA;"
   points="177.648,355.376 223.091,353.927 214.93,337.366 187.451,338.242  "
   id="polygon88" />
	<path
   style="fill:#B9B9BA;"
   d="M231.181,370.343l-63.262,2.017l-0.262,0.468v-0.46l-74.614,2.391   c-4.46,0.138-8.075,4.019-8.075,8.658c0,4.647,3.615,8.303,8.075,8.157l191.466-6.118c4.464-0.146,8.082-4.034,8.082-8.673   s-3.618-8.295-8.082-8.142l-52.1,1.658v2.529L231.181,370.343z"
   id="path90" />
	<path
   style="fill:#B9B9BA;"
   d="M93.039,426.013l1.033-0.03c-3.064-2.324-6.069-4.722-9.018-7.184   C85.51,422.989,88.889,426.155,93.039,426.013z"
   id="path92" />
	<path
   style="fill:#B9B9BA;"
   d="M284.505,419.898c4.464-0.146,8.082-4.019,8.082-8.673c0-4.632-3.618-8.288-8.082-8.142   l-191.466,6.118c-4.46,0.146-8.075,4.034-8.075,8.666c0,0.322,0.06,0.621,0.09,0.935c2.949,2.462,5.953,4.861,9.018,7.184   L284.505,419.898z"
   id="path94" />
</g>
















<path
   style="fill:#bb5538;stroke:none;stroke-width:1px;stroke-linecap:butt;stroke-linejoin:miter;stroke-opacity:1"
   d="m 167.657,107.334 v 265.494 l 34.791,-60.786 29.961,60.786 -0.005,-265.494 z"
   id="path1776" /></svg>
